<?xml version="1.0" encoding="utf-8"?>
<!-- Generator: Adobe Illustrator 17.0.0, SVG Export Plug-In . SVG Version: 6.00 Build 0)  -->
<!DOCTYPE svg PUBLIC "-//W3C//DTD SVG 1.1//EN" "http://www.w3.org/Graphics/SVG/1.1/DTD/svg11.dtd" [
	<!ENTITY ns_extend "http://ns.adobe.com/Extensibility/1.0/">
	<!ENTITY ns_ai "http://ns.adobe.com/AdobeIllustrator/10.0/">
	<!ENTITY ns_graphs "http://ns.adobe.com/Graphs/1.0/">
	<!ENTITY ns_vars "http://ns.adobe.com/Variables/1.0/">
	<!ENTITY ns_imrep "http://ns.adobe.com/ImageReplacement/1.0/">
	<!ENTITY ns_sfw "http://ns.adobe.com/SaveForWeb/1.0/">
	<!ENTITY ns_custom "http://ns.adobe.com/GenericCustomNamespace/1.0/">
	<!ENTITY ns_adobe_xpath "http://ns.adobe.com/XPath/1.0/">
]>
<svg version="1.1" id="Layer_1" xmlns:x="&ns_extend;" xmlns:i="&ns_ai;" xmlns:graph="&ns_graphs;"
	 xmlns="http://www.w3.org/2000/svg" xmlns:xlink="http://www.w3.org/1999/xlink" x="0px" y="0px" width="2500px" height="2500px"
	 viewBox="0 0 2500 2500" enable-background="new 0 0 2500 2500" xml:space="preserve">
<metadata>
	<sfw  xmlns="&ns_sfw;">
		<slices></slices>
		<sliceSourceBounds  height="2501" width="2781.752" x="0" y="-2500" bottomLeftOrigin="true"></sliceSourceBounds>
	</sfw>
</metadata>
<path fill="#F2F2F2" d="M1625.287,0H941.424c0,0,106.139,220.088,30.07,732.376c0,0,665.791,650.735,689.786,1767.624H2500
	C2636.861,1089.17,1625.287,0,1625.287,0z"/>
<path fill="#E5E5E5" d="M971.494,732.376c-31.514,212.233-94.301,474.617-208.863,792.279h0
	c84.921,304.746,135.909,636.09,118.805,975.345h779.844C1637.284,1383.112,971.494,732.376,971.494,732.376z"/>
<path fill="#EEEEEE" d="M941.424,0h-23.995H0c0,0,309.587,389.245,562.493,967.203c41.114,93.956,80.731,192.896,117.275,295.966
	c29.976,84.545,57.888,171.864,82.862,261.487h0C877.193,1206.993,939.98,944.61,971.494,732.376
	C1047.563,220.088,941.424,0,941.424,0z"/>
<path fill="#F2F2F2" d="M762.63,1524.655c-24.974-89.622-52.886-176.941-82.862-261.487
	c-36.544-103.07-76.161-202.009-117.275-295.966C309.587,389.245,0,0,0,0v1500.703v418.525V2500h881.435
	C898.539,2160.745,847.552,1829.401,762.63,1524.655z"/>
<path fill="#EEEEEE" d="M2713.518-1h-28.462H1596.84c0,0,367.219,461.707,667.205,1147.256
	c48.768,111.447,95.76,228.805,139.107,351.062c35.557,100.284,68.665,203.858,98.288,310.165l0,0
	c135.889-376.798,210.364-688.026,247.745-939.768C2839.416,260.06,2713.518-1,2713.518-1z"/>
</svg>
